<svg width="106" height="34" viewBox="0 0 106 34" fill="none" xmlns="http://www.w3.org/2000/svg">
<path d="M28.0002 20.9341C28.0354 20.9956 28.0529 21.0703 28.0529 21.1582C28.0529 21.29 28.0046 21.4043 27.9079 21.501C27.82 21.5977 27.7014 21.646 27.552 21.646C27.4553 21.646 27.3674 21.624 27.2883 21.5801C27.218 21.5361 27.1609 21.4702 27.1169 21.3823C26.9499 21.0571 26.8005 20.6528 26.6687 20.1694C26.5456 19.6772 26.4358 19.1323 26.3391 18.5347C26.2512 17.937 26.1765 17.2954 26.115 16.6099C26.0622 15.9155 26.0183 15.1992 25.9831 14.4609C25.3239 14.5488 24.5813 14.6455 23.7551 14.751C22.9377 14.8564 22.0017 14.9795 20.947 15.1201C20.2087 15.2256 19.4572 15.3179 18.6926 15.397C16.8117 17.4448 14.8298 19.0005 12.7468 20.064C10.6726 21.1187 8.58957 21.646 6.49777 21.646C5.56613 21.646 4.75754 21.5537 4.07199 21.3691C3.39523 21.1934 2.83273 20.9956 2.38449 20.7759C1.94504 20.5474 1.61545 20.3364 1.39572 20.1431C1.16721 19.9497 1.04416 19.8442 1.02658 19.8267C0.93869 19.7388 0.894745 19.6245 0.894745 19.4839C0.894745 19.3433 0.943085 19.2246 1.03976 19.1279C1.13644 19.0312 1.2507 18.9829 1.38254 18.9829C1.53195 18.9829 1.655 19.0356 1.75168 19.1411C1.76926 19.1587 1.87473 19.251 2.06808 19.418C2.26144 19.5762 2.54709 19.7476 2.92502 19.9321C3.31174 20.1167 3.79953 20.2837 4.3884 20.4331C4.97726 20.5825 5.67599 20.6572 6.48459 20.6572C7.59201 20.6572 8.65109 20.5078 9.66183 20.209C10.6726 19.9102 11.6262 19.5234 12.5227 19.0488C13.4279 18.5654 14.2673 18.0161 15.0407 17.4009C15.823 16.7856 16.5305 16.1616 17.1633 15.5288C16.5393 15.5815 15.9196 15.6211 15.3044 15.6475C14.6892 15.6738 14.0827 15.687 13.4851 15.687C12.3073 15.687 11.1867 15.6211 10.1233 15.4893C9.05978 15.3574 8.12375 15.1377 7.31516 14.8301C6.50656 14.5137 5.86057 14.0962 5.37717 13.5776C4.90256 13.0591 4.66525 12.4131 4.66525 11.6396C4.66525 11.2881 4.73557 10.9365 4.87619 10.585C5.0256 10.2334 5.20139 9.91699 5.40353 9.63574C5.60568 9.3457 5.81662 9.11279 6.03635 8.93701C6.25607 8.75244 6.44504 8.66016 6.60324 8.66016C6.72629 8.66016 6.84055 8.7041 6.94601 8.79199C7.05148 8.87988 7.10422 8.99854 7.10422 9.14795C7.10422 9.22705 7.08664 9.30615 7.05148 9.38525C7.01633 9.45557 6.96359 9.5127 6.89328 9.55664C6.8757 9.57422 6.80099 9.63574 6.66916 9.74121C6.53732 9.84668 6.3967 9.9917 6.24728 10.1763C6.09787 10.3521 5.96164 10.5674 5.83859 10.8223C5.71555 11.0684 5.65402 11.3364 5.65402 11.6265C5.65402 12.1274 5.82541 12.5713 6.16818 12.958C6.51974 13.3359 7.02512 13.6567 7.6843 13.9204C8.35226 14.1753 9.16965 14.3687 10.1364 14.5005C11.1032 14.6323 12.2063 14.6982 13.4455 14.6982C14.1574 14.6982 14.9089 14.6763 15.6999 14.6323C16.4909 14.5884 17.3259 14.5225 18.2048 14.4346C18.6267 13.9688 19.0002 13.5293 19.3254 13.1162C19.6506 12.7031 19.9275 12.334 20.156 12.0088C20.5339 11.4727 20.9294 10.9014 21.3425 10.2949C21.7556 9.68848 22.1643 9.07324 22.5686 8.44922C22.9817 7.8252 23.3816 7.20996 23.7683 6.60352C24.1638 5.98828 24.5329 5.4126 24.8757 4.87646C25.2185 4.33154 25.5261 3.83936 25.7986 3.3999C26.071 2.95166 26.2951 2.58252 26.4709 2.29248C26.5237 2.05518 26.6028 1.83984 26.7082 1.64648C26.8137 1.44434 26.9851 1.34326 27.2224 1.34326C27.3542 1.34326 27.4817 1.40039 27.6047 1.51465C27.7278 1.62012 27.7893 1.75635 27.7893 1.92334C27.7893 2.04639 27.7453 2.17822 27.6574 2.31885C27.5695 2.45947 27.4861 2.57813 27.407 2.6748C27.3806 2.8418 27.3366 3.19775 27.2751 3.74268C27.2224 4.2876 27.1653 4.95557 27.1037 5.74658C27.051 6.52881 27.0027 7.39453 26.9587 8.34375C26.9236 9.28418 26.906 10.2378 26.906 11.2046C26.906 11.5649 26.906 11.9209 26.906 12.2725C26.906 12.624 26.9148 12.98 26.9323 13.3403C28.2507 13.1733 29.2131 13.0591 29.8195 12.9976C30.426 12.9272 30.7468 12.8921 30.782 12.8921C30.8962 12.8921 31.0061 12.9404 31.1115 13.0371C31.2258 13.125 31.2829 13.2437 31.2829 13.3931C31.2829 13.5161 31.239 13.626 31.1511 13.7227C31.072 13.8105 30.9665 13.8633 30.8347 13.8809C30.6765 13.8984 30.4919 13.9204 30.281 13.9468C30.07 13.9731 29.8108 14.0039 29.5031 14.0391C29.1955 14.0742 28.8352 14.1182 28.4221 14.1709C28.009 14.2148 27.5256 14.272 26.9719 14.3423C26.9983 15.063 27.0378 15.7573 27.0905 16.4253C27.1521 17.0845 27.2224 17.6997 27.3015 18.271C27.3894 18.8423 27.4904 19.3564 27.6047 19.8135C27.719 20.2705 27.8508 20.644 28.0002 20.9341ZM20.8152 14.1313C21.8523 13.9907 22.7927 13.8677 23.6364 13.7622C24.489 13.6479 25.258 13.5469 25.9436 13.459C25.9348 13.0811 25.926 12.7031 25.9172 12.3252C25.9172 11.9473 25.9172 11.5649 25.9172 11.1782C25.9172 9.93896 25.9392 8.75684 25.9831 7.63184C26.0271 6.49805 26.0886 5.51367 26.1677 4.67871C25.8161 5.23242 25.425 5.84766 24.9944 6.52441C24.5725 7.19238 24.133 7.87793 23.676 8.58105C23.219 9.27539 22.7575 9.96533 22.2917 10.6509C21.8259 11.3364 21.382 11.978 20.9602 12.5757C20.7492 12.8745 20.5339 13.1646 20.3142 13.4458C20.0945 13.7271 19.8747 14.0039 19.655 14.2764C19.8484 14.2588 20.0373 14.2368 20.2219 14.2104C20.4153 14.1841 20.613 14.1577 20.8152 14.1313ZM32.8265 20.6177C32.8265 20.8198 32.7562 20.9868 32.6155 21.1187C32.4837 21.2593 32.3167 21.3296 32.1145 21.3296C31.9124 21.3296 31.741 21.2593 31.6004 21.1187C31.4686 20.9868 31.4026 20.8198 31.4026 20.6177C31.4026 20.4243 31.4686 20.2617 31.6004 20.1299C31.741 19.9893 31.9124 19.9189 32.1145 19.9189C32.3167 19.9189 32.4837 19.9893 32.6155 20.1299C32.7562 20.2617 32.8265 20.4243 32.8265 20.6177ZM69.7163 4.01953C69.3383 4.57324 68.9165 5.23682 68.4506 6.01025C67.9848 6.78369 67.4882 7.64941 66.9609 8.60742C66.5127 9.40723 66.0688 10.2598 65.6294 11.165C65.1987 12.0615 64.7856 12.9536 64.3901 13.8413C63.9946 14.7202 63.6298 15.5684 63.2959 16.3857C62.9619 17.1943 62.6718 17.9106 62.4257 18.5347C62.1796 19.1499 61.9863 19.6465 61.8457 20.0244C61.705 20.3936 61.6347 20.5825 61.6347 20.5913C61.5468 20.811 61.3886 20.9209 61.1601 20.9209C61.0459 20.9209 60.9448 20.8857 60.8569 20.8154C60.769 20.7363 60.7119 20.6396 60.6855 20.5254C60.6855 20.5166 60.6416 20.332 60.5537 19.9717C60.4746 19.6025 60.3647 19.1147 60.2241 18.5083C60.0835 17.8931 59.9209 17.1899 59.7363 16.3989C59.5605 15.5991 59.3715 14.7686 59.1694 13.9072C58.976 13.0371 58.7783 12.1582 58.5761 11.2705C58.374 10.3828 58.185 9.53906 58.0092 8.73926C57.4204 10.4004 56.8271 11.8726 56.2295 13.1558C55.6406 14.4302 55.0341 15.542 54.4101 16.4912C53.7861 17.4316 53.1401 18.2227 52.4721 18.8643C51.8129 19.5059 51.1186 20.0244 50.3891 20.4199C49.6684 20.8066 48.9082 21.0835 48.1084 21.2505C47.3173 21.4175 46.478 21.501 45.5903 21.501C45.1333 21.501 44.6455 21.4482 44.1269 21.3428C43.6084 21.2461 43.0942 21.0923 42.5844 20.8813C42.0747 20.6704 41.5869 20.4067 41.1211 20.0903C40.6552 19.7739 40.2421 19.4004 39.8818 18.9697C39.5214 18.5303 39.2358 18.0381 39.0249 17.4932C38.8139 16.9395 38.7085 16.3242 38.7085 15.6475C38.7085 14.9355 38.8579 14.2852 39.1567 13.6963C39.4555 13.0986 39.8598 12.5889 40.3696 12.167C40.8794 11.7363 41.4682 11.4023 42.1362 11.165C42.8129 10.9277 43.5249 10.8091 44.2719 10.8091C44.8169 10.8091 45.3046 10.8574 45.7353 10.9541C46.1748 11.042 46.5615 11.1562 46.8955 11.2969C47.2295 11.4375 47.5151 11.5913 47.7524 11.7583C47.9897 11.9253 48.1875 12.0791 48.3457 12.2197C48.5039 12.3604 48.6181 12.4834 48.6884 12.5889C48.7587 12.6855 48.7983 12.7339 48.8071 12.7339C48.8598 12.8306 48.8862 12.9229 48.8862 13.0107C48.8862 13.1338 48.8378 13.248 48.7412 13.3535C48.6533 13.459 48.5346 13.5117 48.3852 13.5117C48.2094 13.5117 48.0688 13.437 47.9633 13.2876C47.9545 13.2788 47.8842 13.1997 47.7524 13.0503C47.6206 12.8921 47.4052 12.7207 47.1064 12.5361C46.8076 12.3516 46.4209 12.1846 45.9462 12.0352C45.4804 11.8857 44.9091 11.811 44.2324 11.811C43.6171 11.811 43.0327 11.9077 42.479 12.1011C41.934 12.2856 41.455 12.5493 41.042 12.8921C40.6377 13.2349 40.3125 13.6436 40.0664 14.1182C39.8291 14.584 39.7104 15.0981 39.7104 15.6606C39.7104 16.2144 39.8027 16.7197 39.9873 17.1768C40.1718 17.6338 40.4179 18.0425 40.7255 18.4028C41.0332 18.7632 41.3891 19.0752 41.7934 19.3389C42.1977 19.6025 42.6196 19.8223 43.059 19.998C43.4985 20.165 43.9379 20.2925 44.3774 20.3804C44.8256 20.4595 45.2475 20.499 45.643 20.499C46.311 20.499 46.9614 20.4507 47.5942 20.354C48.2358 20.2485 48.8642 20.0552 49.4795 19.7739C50.1035 19.4927 50.7143 19.106 51.312 18.6138C51.9096 18.1216 52.5029 17.48 53.0918 16.689C53.6806 15.8979 54.2607 14.9443 54.832 13.8281C55.4121 12.7119 55.9921 11.3936 56.5722 9.87305C56.748 9.41602 56.9194 8.92383 57.0864 8.39648C57.2534 7.86914 57.4248 7.3374 57.6005 6.80127C57.4511 6.02783 57.3413 5.36865 57.271 4.82373C57.2094 4.27881 57.1787 3.82617 57.1787 3.46582C57.1787 3.0791 57.2094 2.77148 57.271 2.54297C57.3325 2.31445 57.4116 2.14307 57.5083 2.02881C57.6049 1.90576 57.7104 1.83105 57.8247 1.80469C57.9389 1.76953 58.0488 1.75195 58.1543 1.75195C58.2421 1.75195 58.3388 1.76953 58.4443 1.80469C58.5586 1.83984 58.6596 1.91895 58.7475 2.04199C58.8442 2.15625 58.9233 2.32764 58.9848 2.55615C59.0463 2.78467 59.0771 3.09229 59.0771 3.479C59.0771 3.90088 59.0376 4.38867 58.9585 4.94238C58.8794 5.49609 58.7607 6.10693 58.6025 6.7749C58.7168 7.31104 58.8486 7.90869 58.998 8.56787C59.1474 9.22705 59.3012 9.9126 59.4594 10.6245C59.6176 11.3276 59.7802 12.0483 59.9472 12.7866C60.1142 13.5249 60.2768 14.2456 60.435 14.9487C60.5932 15.6519 60.7426 16.3242 60.8833 16.9658C61.0327 17.6074 61.1689 18.1875 61.292 18.7061C61.5293 18.1084 61.8193 17.3877 62.1621 16.5439C62.5048 15.6914 62.8872 14.7905 63.309 13.8413C63.7309 12.8833 64.1748 11.9121 64.6406 10.9277C65.1152 9.93457 65.5986 8.99854 66.0908 8.11963C66.7851 6.87158 67.4223 5.80371 68.0024 4.91602C68.5825 4.01953 69.0835 3.28125 69.5053 2.70117C69.9272 2.12109 70.2568 1.69482 70.4941 1.42236C70.7402 1.14111 70.872 0.987305 70.8896 0.960938C70.9863 0.864258 71.1049 0.815918 71.2456 0.815918C71.395 0.815918 71.5136 0.868652 71.6015 0.974121C71.6982 1.0708 71.7465 1.18506 71.7465 1.31689C71.7465 1.37842 71.7334 1.43994 71.707 1.50146C71.707 1.51025 71.6543 1.64209 71.5488 1.89697C71.4521 2.14307 71.3247 2.48584 71.1665 2.92529C71.017 3.35596 70.8501 3.86572 70.6655 4.45459C70.4809 5.03467 70.3007 5.66309 70.125 6.33984C69.9492 7.00781 69.791 7.71094 69.6503 8.44922C69.5185 9.17871 69.4218 9.9082 69.3603 10.6377C69.3339 10.9717 69.312 11.3232 69.2944 11.6924C69.2768 12.0527 69.268 12.4175 69.268 12.7866C69.268 13.3667 69.2944 13.9512 69.3471 14.54C69.3999 15.1289 69.4878 15.6958 69.6108 16.2407C69.7338 16.7856 69.9008 17.2998 70.1118 17.7832C70.3227 18.2578 70.582 18.6753 70.8896 19.0356C71.1972 19.396 71.562 19.686 71.9838 19.9058C72.4145 20.1255 72.9111 20.2441 73.4736 20.2617C73.6142 20.2705 73.7241 20.332 73.8032 20.4463C73.8911 20.5518 73.935 20.666 73.935 20.7891C73.935 20.9121 73.8867 21.022 73.79 21.1187C73.6933 21.2153 73.5791 21.2637 73.4472 21.2637C73.3066 21.2637 73.166 21.2505 73.0253 21.2241C72.3925 21.1362 71.8344 20.9561 71.351 20.6836C70.8676 20.4023 70.4502 20.0596 70.0986 19.6553C69.747 19.2422 69.4526 18.7764 69.2153 18.2578C68.9868 17.7305 68.8022 17.168 68.6616 16.5703C68.521 15.9727 68.4199 15.353 68.3584 14.7114C68.3056 14.061 68.2793 13.4062 68.2793 12.7471C68.2793 11.9648 68.3188 11.1826 68.3979 10.4004C68.477 9.61816 68.5825 8.85791 68.7143 8.11963C68.8461 7.37256 69 6.65186 69.1757 5.95752C69.3515 5.26318 69.5317 4.61719 69.7163 4.01953ZM79.6973 19.5498C79.4776 19.5498 79.2842 19.5322 79.1172 19.4971C78.9854 19.7607 78.8272 20.0068 78.6426 20.2354C78.458 20.4551 78.2427 20.6484 77.9966 20.8154C77.7593 20.9824 77.4912 21.1143 77.1924 21.2109C76.8936 21.3076 76.5684 21.356 76.2168 21.356C75.8037 21.356 75.4258 21.2812 75.083 21.1318C74.7403 20.9912 74.4414 20.7935 74.1866 20.5386C73.9317 20.2749 73.7339 19.9629 73.5933 19.6025C73.4527 19.2334 73.3824 18.8291 73.3824 18.3896C73.3824 17.8271 73.4834 17.3394 73.6856 16.9263C73.8877 16.5044 74.1206 16.1572 74.3843 15.8848C74.648 15.6035 74.9117 15.397 75.1753 15.2651C75.439 15.1245 75.6368 15.0542 75.7686 15.0542C75.918 15.0542 76.0279 15.0938 76.0982 15.1729C76.1773 15.252 76.2168 15.3574 76.2168 15.4893C76.2168 15.6387 76.1685 15.7529 76.0718 15.832C75.9839 15.9023 75.8697 15.9727 75.729 16.043C75.5884 16.1133 75.439 16.2144 75.2808 16.3462C75.1226 16.4692 74.9732 16.6274 74.8326 16.8208C74.7007 17.0142 74.5909 17.2427 74.503 17.5063C74.4151 17.77 74.3711 18.0645 74.3711 18.3896C74.3711 18.6797 74.4151 18.9521 74.503 19.207C74.5909 19.4531 74.7183 19.6685 74.8853 19.853C75.0523 20.0288 75.25 20.1694 75.4786 20.2749C75.7071 20.3716 75.962 20.4199 76.2432 20.4199C76.7442 20.4199 77.1573 20.3057 77.4825 20.0771C77.8164 19.8398 78.0713 19.541 78.2471 19.1807C77.7286 18.9082 77.3023 18.5215 76.9683 18.0205C76.6343 17.5195 76.4673 16.957 76.4673 16.333C76.4673 15.832 76.586 15.4233 76.8233 15.1069C77.0694 14.7905 77.3902 14.6323 77.7857 14.6323C78.023 14.6323 78.2471 14.6895 78.458 14.8037C78.669 14.918 78.8536 15.0981 79.0118 15.3442C79.1787 15.5903 79.3106 15.9067 79.4073 16.2935C79.5039 16.6802 79.5523 17.1416 79.5523 17.6777C79.5523 17.959 79.5171 18.2534 79.4468 18.561C79.4995 18.5698 79.5523 18.5742 79.605 18.5742C79.6578 18.5742 79.7149 18.5742 79.7764 18.5742C80.0752 18.5742 80.3433 18.5391 80.5806 18.4688C80.8179 18.3984 81.0332 18.293 81.2266 18.1523C81.42 18.0117 81.5913 17.8315 81.7408 17.6118C81.899 17.3921 82.0484 17.1372 82.189 16.8472C82.2154 16.7944 82.2725 16.7461 82.3604 16.7021C82.4483 16.6494 82.5362 16.623 82.6241 16.623C82.7383 16.623 82.8438 16.6714 82.9405 16.7681C83.0459 16.856 83.0987 16.9746 83.0987 17.124C83.0987 17.1943 83.0811 17.2734 83.0459 17.3613C83.0108 17.4404 82.9756 17.5151 82.9405 17.5854C82.7911 17.8491 82.6153 18.104 82.4131 18.3501C82.2198 18.5874 81.9869 18.7983 81.7144 18.9829C81.4507 19.1587 81.1519 19.2993 80.8179 19.4048C80.4839 19.5103 80.1104 19.5586 79.6973 19.5498ZM77.4429 16.2275C77.4429 16.3945 77.4649 16.5703 77.5088 16.7549C77.5528 16.9395 77.6187 17.124 77.7066 17.3086C77.8033 17.4844 77.9175 17.6558 78.0494 17.8228C78.19 17.981 78.3526 18.1172 78.5371 18.2314C78.5635 18.0469 78.5767 17.8667 78.5767 17.6909C78.5767 17.4536 78.5591 17.2119 78.524 16.9658C78.4888 16.7197 78.4361 16.4956 78.3658 16.2935C78.3042 16.0825 78.2251 15.9155 78.1285 15.7925C78.0318 15.6606 77.9175 15.5947 77.7857 15.5947C77.7329 15.5947 77.6626 15.6343 77.5747 15.7134C77.4869 15.7925 77.4429 15.9639 77.4429 16.2275ZM82.1241 19.8794C82.2648 19.5806 82.4274 19.2598 82.6119 18.917C82.7965 18.5654 82.9943 18.2095 83.2052 17.8491C83.4161 17.48 83.6403 17.1152 83.8776 16.7549C84.1149 16.3945 84.361 16.0562 84.6158 15.7397C84.8707 15.4321 85.1256 15.2124 85.3805 15.0806C85.6442 14.9399 85.8903 14.8696 86.1188 14.8696C86.3473 14.8696 86.545 14.918 86.712 15.0146C86.8878 15.1025 87.0284 15.2256 87.1339 15.3838C87.2482 15.542 87.3317 15.7266 87.3844 15.9375C87.4459 16.1484 87.4767 16.377 87.4767 16.623C87.4767 16.8252 87.4547 17.0977 87.4108 17.4404C87.3756 17.7744 87.358 18.126 87.358 18.4951C87.358 18.7061 87.3668 18.917 87.3844 19.1279C87.4108 19.3301 87.4503 19.5146 87.503 19.6816C87.5646 19.8398 87.6525 19.9717 87.7667 20.0771C87.881 20.1738 88.0304 20.2222 88.215 20.2222C88.4259 20.2222 88.6368 20.165 88.8478 20.0508C89.0587 19.9277 89.2653 19.7695 89.4674 19.5762C89.6695 19.374 89.8629 19.1543 90.0475 18.917C90.232 18.6709 90.399 18.4292 90.5485 18.1919C90.6979 17.9458 90.8297 17.7129 90.944 17.4932C91.0582 17.2646 91.1505 17.0757 91.2208 16.9263C91.3087 16.7241 91.4625 16.623 91.6822 16.623C91.8317 16.623 91.9503 16.6758 92.0382 16.7812C92.1261 16.8867 92.17 17.001 92.17 17.124C92.17 17.1943 92.1569 17.2603 92.1305 17.3218C92.0953 17.3921 92.025 17.5371 91.9195 17.7568C91.8229 17.9766 91.6866 18.2314 91.5109 18.5215C91.3439 18.8115 91.1461 19.1147 90.9176 19.4312C90.6891 19.7476 90.4342 20.042 90.1529 20.3145C89.8805 20.5781 89.5817 20.7979 89.2565 20.9736C88.9401 21.1406 88.6061 21.2241 88.2545 21.2241C87.8502 21.2241 87.525 21.1406 87.2789 20.9736C87.0328 20.7979 86.8395 20.5781 86.6988 20.3145C86.567 20.0508 86.4747 19.7563 86.422 19.4312C86.378 19.106 86.3561 18.7896 86.3561 18.4819C86.3561 18.3237 86.3605 18.1567 86.3693 17.981C86.3868 17.7964 86.4044 17.6162 86.422 17.4404C86.4396 17.2646 86.4528 17.1021 86.4615 16.9526C86.4791 16.7944 86.4879 16.6626 86.4879 16.5571C86.4879 16.2847 86.4484 16.1001 86.3693 16.0034C86.2989 15.9067 86.2154 15.8584 86.1188 15.8584C85.9781 15.8584 85.8155 15.9419 85.631 16.1089C85.4552 16.2671 85.2662 16.478 85.0641 16.7417C84.8707 17.0054 84.673 17.3042 84.4708 17.6382C84.2775 17.9634 84.0885 18.2886 83.9039 18.6138C83.7194 18.939 83.5524 19.251 83.4029 19.5498C83.2535 19.8398 83.1305 20.0815 83.0338 20.2749C82.8492 20.644 82.6603 20.8901 82.4669 21.0132C82.2823 21.145 82.1153 21.2109 81.9659 21.2109C81.6935 21.2109 81.4825 21.1055 81.3331 20.8945C81.1925 20.6748 81.1222 20.4111 81.1222 20.1035V19.2729C81.1222 17.6118 81.1222 16.0298 81.1222 14.5269C81.131 13.0151 81.1529 11.6133 81.1881 10.3213C81.232 9.02051 81.298 7.84717 81.3859 6.80127C81.4825 5.74658 81.6232 4.8501 81.8077 4.11182C81.9923 3.36475 82.2252 2.78906 82.5065 2.38477C82.7965 1.98047 83.1569 1.77832 83.5875 1.77832C83.9567 1.77832 84.2687 1.87939 84.5236 2.08154C84.7784 2.28369 84.985 2.56055 85.1432 2.91211C85.3014 3.25488 85.4156 3.65918 85.486 4.125C85.5563 4.58203 85.5914 5.06543 85.5914 5.5752C85.5914 6.6123 85.4947 7.63184 85.3014 8.63379C85.1168 9.62695 84.8663 10.5981 84.5499 11.5474C84.2335 12.4966 83.8644 13.4238 83.4425 14.3291C83.0206 15.2256 82.5768 16.1001 82.111 16.9526C82.111 17.1108 82.111 17.2998 82.111 17.5195C82.111 17.7393 82.111 17.959 82.111 18.1787C82.111 18.3984 82.111 18.605 82.111 18.7983C82.111 18.9917 82.111 19.1455 82.111 19.2598L82.1241 19.8794ZM82.1241 15.0146C82.4933 14.2061 82.8273 13.4194 83.1261 12.6548C83.4337 11.8813 83.693 11.1123 83.9039 10.3477C84.1236 9.58301 84.295 8.80957 84.4181 8.02734C84.5411 7.23633 84.6027 6.41455 84.6027 5.56201C84.6027 5.42139 84.5939 5.19727 84.5763 4.88965C84.5675 4.58203 84.5279 4.27002 84.4576 3.95361C84.3961 3.63721 84.295 3.36035 84.1544 3.12305C84.0226 2.88574 83.8336 2.76709 83.5875 2.76709C83.3942 2.76709 83.2272 2.89893 83.0865 3.1626C82.9459 3.41748 82.8229 3.76904 82.7174 4.21729C82.6119 4.65674 82.524 5.1709 82.4537 5.75977C82.3834 6.34863 82.3263 6.97266 82.2823 7.63184C82.2384 8.29102 82.2032 8.96777 82.1769 9.66211C82.1593 10.3564 82.1461 11.0332 82.1373 11.6924C82.1285 12.3428 82.1241 12.9536 82.1241 13.5249C82.1241 14.0962 82.1241 14.5928 82.1241 15.0146ZM91.736 19.5498C91.9206 19.8047 92.1579 20.0112 92.4479 20.1694C92.738 20.3188 93.0939 20.3936 93.5158 20.3936C93.9465 20.3936 94.3376 20.2925 94.6892 20.0903C95.0407 19.8794 95.3615 19.6069 95.6516 19.2729C95.9416 18.939 96.2009 18.5654 96.4294 18.1523C96.6579 17.7393 96.8644 17.3262 97.049 16.9131C97.093 16.8164 97.1545 16.7461 97.2336 16.7021C97.3127 16.6494 97.4006 16.623 97.4973 16.623C97.6467 16.623 97.7653 16.6758 97.8532 16.7812C97.9499 16.8867 97.9982 17.001 97.9982 17.124C97.9982 17.168 97.9938 17.2075 97.9851 17.2427C97.9763 17.269 97.9631 17.2998 97.9455 17.335C97.3391 18.6709 96.6755 19.6772 95.9548 20.354C95.2429 21.0308 94.4343 21.3779 93.529 21.3955C92.9489 21.3955 92.4479 21.2812 92.0261 21.0527C91.6042 20.833 91.257 20.5474 90.9846 20.1958C90.7121 19.8354 90.51 19.4312 90.3781 18.9829C90.2463 18.5347 90.1804 18.0864 90.1804 17.6382C90.1804 17.1899 90.2331 16.7769 90.3386 16.3989C90.4528 16.021 90.611 15.6914 90.8132 15.4102C91.0241 15.1289 91.2702 14.9092 91.5515 14.751C91.8415 14.5928 92.1579 14.5137 92.5007 14.5137C92.7028 14.5137 92.9006 14.5576 93.0939 14.6455C93.2961 14.7246 93.4763 14.8433 93.6345 15.0015C93.7927 15.1509 93.9201 15.3354 94.0168 15.5552C94.1135 15.7749 94.1618 16.0254 94.1618 16.3066C94.1618 16.667 94.1003 17.0054 93.9772 17.3218C93.8542 17.6382 93.6828 17.9326 93.4631 18.2051C93.2521 18.4775 92.9973 18.728 92.6984 18.9565C92.3996 19.1851 92.0788 19.3828 91.736 19.5498ZM91.3405 18.6929C91.613 18.5786 91.8591 18.4336 92.0788 18.2578C92.3073 18.082 92.5007 17.8887 92.6589 17.6777C92.8171 17.4668 92.9401 17.2471 93.028 17.0186C93.1159 16.7812 93.1599 16.5439 93.1599 16.3066C93.1599 16.043 93.0939 15.8452 92.9621 15.7134C92.8303 15.5728 92.6765 15.5024 92.5007 15.5024C92.2634 15.5024 92.0612 15.5684 91.8942 15.7002C91.7272 15.832 91.591 16.0034 91.4855 16.2144C91.3801 16.4253 91.301 16.6626 91.2482 16.9263C91.2043 17.1812 91.1823 17.436 91.1823 17.6909C91.1823 17.8491 91.1955 18.0161 91.2219 18.1919C91.257 18.3677 91.2966 18.5347 91.3405 18.6929ZM100.887 21.1846C101.194 20.877 101.506 20.5649 101.823 20.2485C102.139 19.9233 102.447 19.585 102.745 19.2334C103.044 18.8818 103.321 18.5171 103.576 18.1392C103.84 17.7524 104.073 17.3438 104.275 16.9131C104.319 16.8164 104.38 16.7461 104.459 16.7021C104.538 16.6494 104.626 16.623 104.723 16.623C104.872 16.623 104.991 16.6758 105.079 16.7812C105.176 16.8867 105.224 17.0054 105.224 17.1372C105.224 17.2075 105.211 17.2734 105.184 17.335C104.912 17.9062 104.6 18.4292 104.248 18.9038C103.897 19.3784 103.528 19.8311 103.141 20.2617C102.754 20.6836 102.363 21.0923 101.968 21.4878C101.572 21.8921 101.194 22.2964 100.834 22.7007C100.799 23.3071 100.799 23.9136 100.834 24.52C100.869 25.1353 100.887 25.7856 100.887 26.4712C100.887 27.0337 100.869 27.5962 100.834 28.1587C100.799 28.7212 100.741 29.2573 100.662 29.7671C100.583 30.2856 100.473 30.769 100.333 31.2173C100.201 31.6655 100.03 32.0522 99.8186 32.3774C99.6077 32.7114 99.3616 32.9707 99.0804 33.1553C98.7991 33.3486 98.4695 33.4453 98.0916 33.4453C97.4676 33.4453 96.9886 33.23 96.6546 32.7993C96.3206 32.3687 96.1536 31.7666 96.1536 30.9932C96.1536 30.5713 96.1975 30.1187 96.2854 29.6353C96.3821 29.1519 96.5139 28.6509 96.6809 28.1323C96.8479 27.6226 97.0457 27.104 97.2742 26.5767C97.5115 26.0493 97.7664 25.5352 98.0388 25.0342C98.3113 24.5332 98.6013 24.0542 98.909 23.5972C99.2166 23.1489 99.5286 22.7402 99.845 22.3711C99.8626 21.9492 99.8802 21.5098 99.8977 21.0527C99.9241 20.6045 99.9505 20.187 99.9768 19.8003C99.7483 20.2046 99.4627 20.5298 99.1199 20.7759C98.7859 21.022 98.4168 21.145 98.0125 21.145C97.3445 21.145 96.8216 20.9209 96.4436 20.4727C96.0657 20.0244 95.8767 19.4092 95.8767 18.627C95.8767 18.0557 95.9295 17.5371 96.0349 17.0713C96.1492 16.5967 96.2679 16.1924 96.3909 15.8584C96.5227 15.5156 96.6414 15.2563 96.7469 15.0806C96.8523 14.896 96.9051 14.8081 96.9051 14.8169C97.0017 14.6675 97.138 14.5928 97.3138 14.5928C97.4632 14.5928 97.5818 14.6455 97.6697 14.751C97.7664 14.8477 97.8147 14.9619 97.8147 15.0938C97.8147 15.1904 97.7884 15.2783 97.7356 15.3574C97.7444 15.3486 97.7005 15.4233 97.6038 15.5815C97.5159 15.731 97.4148 15.9507 97.3006 16.2407C97.1951 16.5308 97.094 16.8779 96.9973 17.2822C96.9095 17.6865 96.8655 18.1304 96.8655 18.6138C96.8655 19.0972 96.9534 19.4751 97.1292 19.7476C97.305 20.02 97.5906 20.1562 97.9861 20.1562C98.4871 20.1562 98.9397 19.7871 99.344 19.0488C99.7483 18.3018 100.091 17.2207 100.372 15.8057C100.39 15.6914 100.443 15.5991 100.531 15.5288C100.618 15.4497 100.724 15.4102 100.847 15.4102C100.988 15.4102 101.106 15.4585 101.203 15.5552C101.3 15.6519 101.348 15.7705 101.348 15.9111C101.348 15.9375 101.33 16.0957 101.295 16.3857C101.26 16.667 101.216 17.0449 101.163 17.5195C101.119 17.9941 101.071 18.5479 101.018 19.1807C100.966 19.8047 100.922 20.4727 100.887 21.1846ZM99.8318 23.9795C99.4363 24.5508 99.0716 25.1528 98.7376 25.7856C98.4124 26.4185 98.1311 27.0469 97.8938 27.6709C97.6565 28.2949 97.472 28.8926 97.3401 29.4639C97.2083 30.0352 97.1424 30.5449 97.1424 30.9932C97.1424 31.4502 97.2171 31.8062 97.3665 32.061C97.5159 32.3247 97.7532 32.4565 98.0784 32.4565C98.3684 32.4565 98.6233 32.3115 98.843 32.0215C99.0716 31.7402 99.2605 31.3359 99.4099 30.8086C99.5681 30.2812 99.6868 29.6396 99.7659 28.8838C99.845 28.1367 99.8846 27.2974 99.8846 26.3657C99.8846 25.9878 99.8758 25.6055 99.8582 25.2188C99.8494 24.832 99.8406 24.4189 99.8318 23.9795Z" fill="#F2F2F2"/>
</svg>
