<?xml version="1.0" standalone="no"?>
<!DOCTYPE svg PUBLIC "-//W3C//DTD SVG 20010904//EN"
 "http://www.w3.org/TR/2001/REC-SVG-20010904/DTD/svg10.dtd">
<svg version="1.0" xmlns="http://www.w3.org/2000/svg"
 width="128.000000pt" height="128.000000pt" viewBox="0 0 128.000000 128.000000"
 preserveAspectRatio="xMidYMid meet">
<metadata>
Created by potrace 1.14, written by Peter Selinger 2001-2017
</metadata>
<g transform="translate(0.000000,128.000000) scale(0.100000,-0.100000)"
fill="#000000" stroke="none">
<path d="M960 951 c0 -13 -207 -323 -248 -371 l-30 -35 -143 0 c-169 0 -229
16 -255 67 -16 31 -17 29 31 94 5 7 6 16 2 21 -12 11 -40 -10 -61 -46 -16 -28
-17 -38 -8 -70 21 -69 116 -102 292 -102 l105 0 -40 -34 c-128 -110 -313 -152
-422 -97 -49 26 -63 27 -63 8 0 -8 21 -25 47 -38 41 -19 63 -23 143 -22 81 0
104 4 160 28 68 29 138 75 197 129 29 27 47 34 116 44 45 6 98 12 118 12 l36
1 6 -69 c7 -86 26 -151 44 -151 15 0 16 11 3 65 -5 22 -12 68 -15 102 l-6 62
48 7 c26 4 57 7 68 8 11 1 20 8 20 16 0 15 -9 16 -90 9 l-40 -4 -1 135 c0 119
4 168 17 219 2 8 -4 17 -13 19 -10 2 -18 -1 -18 -7z m-23 -240 l-2 -130 -30
-5 c-16 -3 -55 -8 -85 -11 -30 -4 -61 -8 -67 -10 -7 -3 -13 -2 -13 0 0 2 28
44 63 92 35 48 79 112 98 141 18 28 34 52 35 52 1 0 1 -58 1 -129z"/>
<path d="M1120 359 c-8 -15 -7 -21 4 -25 19 -7 36 3 36 21 0 22 -29 26 -40 4z"/>
</g>
</svg>
