<svg width="301" height="311" viewBox="0 0 301 311" fill="none" xmlns="http://www.w3.org/2000/svg">
<g clip-path="url(#clip0_889_4651)">
<path d="M0.435058 177.538L1.18506 64.7039C1.31631 44.2776 15.5569 26.7666 35.2163 22.8638L143.844 1.26193C169.944 -3.92929 194.169 16.5629 194.001 43.6757L193.251 156.528C193.11 176.945 178.869 194.447 159.21 198.359L50.5819 219.961C24.4819 225.152 0.256933 204.66 0.435058 177.538Z" fill="white" fill-opacity="0.2"/>
<path d="M53.6558 222.558L54.4058 109.705C54.5276 89.2978 68.7776 71.7962 88.437 67.884L197.065 46.2915C223.165 41.1003 247.39 61.583 247.212 88.7053L246.462 201.558C246.331 221.975 232.09 239.476 212.431 243.389L103.803 264.991C77.7026 270.172 53.4776 249.69 53.6558 222.577V222.558Z" fill="white" fill-opacity="0.5"/>
<path d="M106.878 267.576L107.628 154.724C107.759 134.297 122 116.805 141.659 112.893L250.287 91.2912C276.387 86.1 300.612 106.592 300.434 133.705L299.684 246.558C299.553 266.984 285.312 284.486 265.653 288.388L157.025 309.99C130.925 315.182 106.7 294.689 106.869 267.576H106.878Z" fill="white" fill-opacity="0.8"/>
</g>
<defs>
<clipPath id="clip0_889_4651">
<rect width="300" height="310.345" fill="white" transform="translate(0.434082 0.454102)"/>
</clipPath>
</defs>
</svg>
